<svg xmlns="http://www.w3.org/2000/svg" data-name="Layer 1" width="403.0338461538461" height="273.59999999999997" viewBox="0 0 383 260" version="1.1" id="svg5295"
    xmlns:xlink="http://www.w3.org/1999/xlink">
    <defs id="SvgjsDefs5999"></defs>
    <g id="SvgjsG6000" featurekey="rootContainer" transform="matrix(1,0,0,1,0,0)" fill="#0f81c7">
        <path xmlns="http://www.w3.org/2000/svg" fill-rule="nonzero" d="             M0,0             H383             V260             H0,0             z             M4,4             v252             h375             v-252             z     "></path>
    </g>
    <g id="SvgjsG6001" featurekey="symbolFeature-0" transform="matrix(1.9912382599708363,0,0,1.9912382599708363,93.66746577802311,-37.373945588053346)" fill="#0f81c7">
        <g xmlns="http://www.w3.org/2000/svg" class="st0" style="display: none;">
            <g class="st1" style="display: inline;">
                <path class="st2" d="M74.8,60.9L74.8,60.9C62.3,61,54.3,68.6,50.9,72.6V55.4c0-0.6-0.5-1-1-1l0,0c-0.6,0-1,0.5-1,1v27.7    c-3.4-4-11.4-11.5-23.9-11.7c-0.4,0-0.6,0.1-0.8,0.3C24,72,24,72.2,24,72.5c0,0.4,1.3,9.7,8.5,14.1c2.5,1.5,5.3,2.3,8.5,2.3    c2.4,0,5.1-0.5,7.9-1.4v10.1c0,0.6,0.5,1,1,1l0,0c0.6,0,1-0.5,1-1V76.9c2.8,0.9,5.5,1.4,8,1.4c3.2,0,6-0.8,8.5-2.3    c7.2-4.4,8.4-13.7,8.5-14.1c0-0.3-0.1-0.6-0.2-0.8C75.4,61.1,75.1,60.9,74.8,60.9z M33.5,85c-5-3.1-6.7-9-7.3-11.5    c12.2,0.7,19.7,9.2,22,12.2C42.3,87.6,37.3,87.3,33.5,85z M66.3,74.5c-3.8,2.4-8.8,2.6-14.8,0.7c2.3-3,9.8-11.5,22.1-12.2    C73,65.5,71.2,71.4,66.3,74.5z" style="fill: #0f81c7;"></path>
                <path class="st2" d="M43.2,33.1c0.7,1.8,2.1,3.2,3.9,3.9c0.9,0.4,1.8,0.6,2.8,0.6c0.9,0,1.9-0.2,2.8-0.6c1.8-0.7,3.2-2.1,3.9-3.9    c0.7-1.8,0.7-3.8,0-5.5c-0.7-1.8-2.1-3.2-3.9-3.9c-1.8-0.7-3.8-0.7-5.5,0C43.5,25.1,41.7,29.4,43.2,33.1z M49.9,25.1    c2,0,4,1.2,4.8,3.2c0.5,1.3,0.5,2.7,0,4c-0.5,1.3-1.5,2.3-2.8,2.8s-2.7,0.5-4,0s-2.3-1.5-2.8-2.8c-1.1-2.7,0.2-5.7,2.8-6.8    C48.6,25.2,49.3,25.1,49.9,25.1z" style="fill: #0f81c7;"></path>
                <path class="st2" d="M42,20.2c1.5,1.6,2.7,2.1,3.6,2.1c0.4,0,0.7-0.1,0.9-0.2c2.8-1.2,2.2-6.7,0.2-11.6s-5.5-9.3-8.3-8.1    S36.2,9.1,38.2,14C39.3,16.5,40.6,18.7,42,20.2z M39.2,4.3c0.1,0,0.1,0,0.2,0c1,0,3.5,2.2,5.5,7c2.1,5.2,1.7,8.6,0.9,9    c-0.3,0.1-1.2-0.2-2.3-1.4c-1.2-1.3-2.4-3.3-3.4-5.6C38,8.1,38.4,4.6,39.2,4.3z" style="fill: #0f81c7;"></path>
                <path class="st2" d="M53.3,38.5c-0.9,0.4-2,1.5-1.9,4.6c0.1,2.1,0.7,4.6,1.7,7.1c1.8,4.4,4.8,8.3,7.4,8.3c0.3,0,0.6-0.1,0.9-0.2    c2.8-1.2,2.2-6.7,0.2-11.6C59.6,41.7,56.1,37.4,53.3,38.5z M59.8,47.4c2.1,5.2,1.7,8.6,0.9,9c-0.8,0.3-3.5-1.8-5.7-7    c-0.9-2.3-1.5-4.5-1.6-6.4c-0.1-1.6,0.3-2.5,0.6-2.6c0.1,0,0.1,0,0.2,0C55.3,40.4,57.8,42.6,59.8,47.4z" style="fill: #0f81c7;"></path>
                <path class="st2" d="M30.1,27.1c2.6,1.1,5.3,1.7,7.5,1.7c2,0,3.6-0.6,4.1-1.9c1.2-2.8-3.2-6.3-8.1-8.3c-2.5-1-5-1.6-7.1-1.7    c-3.1-0.1-4.2,1-4.6,1.9C20.9,21.5,25.2,25,30.1,27.1z M23.9,19.5c0.1-0.3,0.9-0.6,2.2-0.6c0.1,0,0.2,0,0.4,0    c1.8,0.1,4.1,0.6,6.4,1.6c5.2,2.1,7.3,4.9,7,5.7s-3.8,1.2-9-0.9C25.7,23,23.6,20.3,23.9,19.5z" style="fill: #0f81c7;"></path>
                <path class="st2" d="M69.8,33.6c-4.9-2-10.5-2.6-11.6,0.1C57,36.5,61.4,40,66.3,42c2.6,1.1,5.3,1.7,7.5,1.7c2,0,3.6-0.6,4.1-1.9    C79,39.1,74.7,35.6,69.8,33.6z M76,41.1c-0.3,0.8-3.8,1.2-9-0.9c-5.2-2.1-7.3-4.9-7-5.7c0.2-0.4,0.9-0.6,2.2-0.6    c1.6,0,3.9,0.4,6.7,1.6C74.1,37.6,76.3,40.3,76,41.1z" style="fill: #0f81c7;"></path>
                <path class="st2" d="M33.6,42c4.9-2,9.3-5.5,8.1-8.3c-0.4-0.9-1.5-2-4.6-1.9c-2.1,0.1-4.6,0.7-7.1,1.7c-4.9,2-9.3,5.5-8.1,8.3    c0.5,1.3,2.1,1.9,4.1,1.9C28.3,43.7,31.1,43.1,33.6,42z M23.9,41.1c-0.3-0.8,1.8-3.5,7-5.7c2.3-0.9,4.5-1.5,6.4-1.6    c1.6-0.1,2.5,0.3,2.6,0.6c0.3,0.8-1.8,3.5-7,5.7S24.2,41.9,23.9,41.1z" style="fill: #0f81c7;"></path>
                <path class="st2" d="M58.1,26.9c0.4,0.9,1.4,1.9,4.1,1.9c0.1,0,0.3,0,0.4,0c2.1-0.1,4.6-0.7,7.1-1.7s4.7-2.4,6.2-3.8    c2.3-2.1,2.3-3.6,1.9-4.5s-1.5-2-4.6-1.9c-2.1,0.1-4.6,0.7-7.1,1.7C61.4,20.6,57,24.1,58.1,26.9z M67,20.5    c2.3-0.9,4.5-1.5,6.4-1.6c0.1,0,0.2,0,0.4,0c1.4,0,2.1,0.3,2.3,0.6c0.1,0.3-0.2,1.2-1.4,2.3c-1.3,1.2-3.3,2.4-5.6,3.4    c-2.3,0.9-4.5,1.5-6.4,1.6c-1.6,0.1-2.5-0.3-2.6-0.6C59.7,25.3,61.9,22.6,67,20.5z" style="fill: #0f81c7;"></path>
                <path class="st2" d="M38.2,46.6c-1,2.5-1.6,5-1.7,7.1c-0.1,3.1,1,4.2,1.9,4.6c0.3,0.1,0.6,0.2,0.9,0.2c0.9,0,2.1-0.5,3.6-2.1    c1.4-1.5,2.7-3.7,3.8-6.2c1-2.5,1.6-5,1.7-7.1c0.1-3.1-1-4.2-1.9-4.6C43.8,37.4,40.2,41.7,38.2,46.6z M44.8,49.4    c-0.9,2.3-2.1,4.3-3.4,5.6c-1.1,1.2-1.9,1.5-2.3,1.4c-0.3-0.1-0.7-1-0.6-2.6c0.1-1.8,0.6-4.1,1.6-6.4c2.1-5.2,4.9-7.3,5.7-7    c0.3,0.1,0.7,1,0.6,2.6C46.3,44.8,45.8,47.1,44.8,49.4z" style="fill: #0f81c7;"></path>
                <path class="st2" d="M53.3,22.1c0.3,0.1,0.6,0.2,0.9,0.2c0.9,0,2.1-0.5,3.6-2.1c1.4-1.5,2.7-3.7,3.8-6.2c1-2.5,1.6-5,1.7-7.1    c0.1-3.1-1-4.2-1.9-4.6C60.6,2,59.1,2,57,4.3c-1.4,1.5-2.7,3.7-3.8,6.2C51.2,15.4,50.6,21,53.3,22.1z M55.1,11.3    C56,9,57.2,7,58.5,5.7c0.9-1,1.7-1.4,2.1-1.4c0.1,0,0.1,0,0.2,0c0.3,0.1,0.7,1,0.6,2.6c-0.1,1.8-0.6,4.1-1.6,6.4    c-0.9,2.3-2.1,4.3-3.4,5.6c-1.1,1.2-1.9,1.5-2.3,1.4C53.3,19.9,52.9,16.4,55.1,11.3z" style="fill: #0f81c7;"></path>
            </g>
        </g>
        <g xmlns="http://www.w3.org/2000/svg" class="st0" style="display: none;">
            <g class="st1" style="display: inline;">
                <path class="st2" d="M57.7,36.6L57.7,36.6c-0.5,0-1,0.4-1,1v12.1h-5.9v-14c0-0.5-0.4-1-1-1l0,0c-0.5,0-1,0.4-1,1v14h-5.9V37.6    c0-0.5-0.4-1-1-1l0,0c-0.5,0-1,0.4-1,1v13c0,0.3,0.1,0.5,0.3,0.7s0.4,0.3,0.7,0.3h6.8v38.5c0,0.5,0.4,1,1,1l0,0c0.5,0,1-0.4,1-1    V51.6h6.8l0,0c0.3,0,0.5-0.1,0.7-0.3s0.3-0.4,0.3-0.7v-13C58.6,37,58.2,36.6,57.7,36.6z" style="fill: #0f81c7;"></path>
                <path class="st2" d="M95.4,41l-8.1-3.2C88.4,36,89,34,89,31.9c0-3.1-1.2-5.9-3.3-8.1C76.1,14.3,63.4,9,49.9,9l0,0    c-13.5,0-26.2,5.2-35.7,14.8c-2.2,2.2-3.4,5-3.4,8.1c0,2.1,0.6,4.1,1.7,5.9L4.4,41c-0.4,0-0.7,0.4-0.7,0.8s0.2,0.7,0.6,0.9L8,44.1    l1.4,3.7c0.1,0.4,0.5,0.6,0.9,0.6l0,0c0.4,0,0.7-0.2,0.9-0.6l3-7.8c2.2,2.1,5,3.3,8,3.3l0,0c3.1,0,5.9-1.2,8.1-3.3    c5.2-5.2,12.2-8.1,19.5-8.1l0,0c7.4,0,14.3,2.9,19.5,8.1c2.2,2.2,5,3.4,8.1,3.4l0,0c3,0,5.8-1.2,8-3.3l3,7.8    c0.1,0.4,0.5,0.6,0.9,0.6s0.7-0.2,0.9-0.6l1.4-3.7l3.7-1.4c0.4-0.1,0.6-0.5,0.6-0.9C96,41.5,95.8,41.1,95.4,41z M10.3,44.8L9.6,43    c-0.1-0.2-0.3-0.4-0.5-0.5l-1.8-0.7l4.9-1.9L10.3,44.8z M77.5,41.4L77.5,41.4c-2.6,0-4.9-1-6.7-2.8c-5.6-5.6-13-8.7-20.9-8.7l0,0    C42,29.9,34.6,33,29,38.6c-3.7,3.7-9.8,3.7-13.5,0c-1.8-1.8-2.8-4.2-2.8-6.7s1-4.9,2.8-6.7C24.7,16,36.9,11,49.9,11l0,0    c13,0,25.2,5.1,34.4,14.3c1.8,1.8,2.8,4.2,2.8,6.7s-1,4.9-2.8,6.7C82.5,40.4,80.1,41.4,77.5,41.4z M90.7,42.5    c-0.2,0.1-0.4,0.3-0.5,0.5l-0.7,1.8l-1.9-4.9l4.9,1.9L90.7,42.5z" style="fill: #0f81c7;"></path>
            </g>
        </g>
        <g xmlns="http://www.w3.org/2000/svg">
            <g>
                <path d="M21.9,25.8L21.9,25.8c-0.5,0-0.8,0.4-0.8,0.8L21,42h-5V26.7c0-0.5-0.4-0.8-0.8-0.8l0,0c-0.5,0-0.8,0.4-0.8,0.8V42H9.3    V26.7c0-0.5-0.4-0.8-0.8-0.8l0,0c-0.5,0-0.8,0.4-0.8,0.8v16.1c0,0.5,0.4,0.8,0.8,0.8h5.9v33.2c0,0.5,0.4,0.8,0.8,0.8l0,0    c0.5,0,0.8-0.4,0.8-0.8V43.6h5.9l0,0c0.2,0,0.4-0.1,0.6-0.2c0.2-0.2,0.2-0.4,0.2-0.6V26.7C22.7,26.2,22.3,25.8,21.9,25.8z"></path>
                <path d="M84.6,25.9c-0.2-0.1-0.5,0-0.7,0.1c-0.2,0.2-0.3,0.4-0.3,0.7v31.8l0,0l0,0v18.6c0,0.5,0.4,0.8,0.8,0.8s0.8-0.4,0.8-0.8    V59.3h5.4c0.5,0,0.8-0.4,0.8-0.8V34.8C91.4,28.1,84.7,25.9,84.6,25.9z M89.7,57.8h-4.6V28c1.6,0.8,4.6,2.9,4.5,6.9L89.7,57.8z"></path>
                <path d="M51.5,25.9L51.5,25.9c-7,0-13.5,2.7-18.4,7.6S25.5,45,25.5,51.9c0,14.4,11.7,26.1,26,26.1l0,0c14.4,0,26-11.7,26.1-26    C77.6,37.6,65.9,25.9,51.5,25.9z M51.5,76.3L51.5,76.3c-13.5,0-24.4-11-24.4-24.4c0-13.5,11-24.4,24.4-24.4l0,0    c13.5,0,24.4,11,24.4,24.4C75.9,65.4,64.9,76.3,51.5,76.3z"></path>
                <path d="M51.5,31.8L51.5,31.8c-11.1,0-20.1,9-20.1,20.1S40.4,72,51.5,72l0,0c11.1,0,20.1-9,20.1-20.1S62.6,31.8,51.5,31.8z     M64.5,65c-3.5,3.5-8.1,5.4-13.1,5.4l0,0c-4.9,0-9.6-1.9-13.1-5.4s-5.4-8.1-5.4-13.1c0-10.2,8.3-18.5,18.5-18.5l0,0    c10.2,0,18.5,8.3,18.5,18.5C70,56.9,68,61.5,64.5,65z"></path>
            </g>
        </g>
    </g>
    <g id="SvgjsG6002" featurekey="nameFeature-0" transform="matrix(1.574004550680358,0,0,1.574004550680358,12.093512424991935,119.36378437868282)" fill="#ffffff">
        <path d="M35.32 40.2 c-3.32 0.16 -6.84 -0.4 -9.56 -2.4 c-1.88 -1.32 -2.96 -3.4 -4.52 -5 c0 -0.04 -0.04 -0.04 -0.08 -0.08 l0.04 0 c-2.24 -2.24 -4.88 -4.08 -8.08 -4.6 c-1.4 0.12 -2.8 0.2 -4.2 0.2 c-1.04 0 -2.12 -0.04 -3.16 -0.12 c0.04 3.52 -0.04 7.08 0 10.6 c-0.08 0.28 0.12 0.88 -0.16 1 l-1 0 c-0.32 0 -0.68 -0.04 -1 -0.08 c-0.12 -0.04 -0.52 0.04 -0.48 -0.2 c0.24 -8.8 0 -17.68 0.12 -26.52 c0.04 -0.32 -0.2 -1.04 0.36 -0.92 c2.36 -0.04 4.76 -0.04 7.12 0.04 c4.84 -0.24 8.84 3.24 8.84 8.16 c0 2.44 -1.04 4.96 -3.08 6.44 c2.96 1.12 5.56 3.2 7.6 5.6 c0.92 1.08 1.76 2.24 2.92 3.12 c2.36 1.8 5.44 2.32 8.36 2.28 c1.84 -0.08 3.72 -0.08 5.48 -0.68 c0.08 0 0.2 -0.08 0.28 -0.12 c0.2 0.08 0.08 0.56 0.12 0.76 c0 0.4 0 0.84 -0.04 1.28 c0 0.08 0 0.16 -0.04 0.2 c-1.72 1 -3.92 0.88 -5.84 1.04 z M40.8 32.72 c-4.64 0 -9.32 0.08 -13.96 0 c-0.08 0 -0.24 0 -0.24 -0.12 c-0.16 -1.84 -0.04 -3.68 0 -5.52 c0 -4.88 -0.28 -9.76 -0.08 -14.6 c0.04 -0.08 0 -0.16 0.08 -0.2 c4.68 -0.2 9.6 -0.2 14.36 -0.2 c0.08 0 0.16 0.04 0.16 0.12 l0 0.04 c-0.08 0.72 0.24 1.8 -0.16 2.32 c-3.92 0.08 -7.88 0.04 -11.8 0.12 c0 2.24 -0.04 4.48 0.04 6.76 l0.76 0 c2.84 0.12 5.84 -0.16 8.6 0 c-0.24 0.64 0.4 2.52 -0.6 2.32 c-2.92 -0.04 -5.88 0 -8.84 0 c0.08 2.2 0.08 4.4 0.12 6.6 c3.96 -0.04 7.88 -0.08 11.84 -0.08 c0.08 0 0.16 0.04 0.16 0.12 c-0.2 0.56 0.24 2.32 -0.44 2.32 z M5.76 25.759999999999998 c3.6 -0.04 8.64 0.96 10.64 -2.88 c1.32 -2.84 0.28 -6.88 -2.8 -8.04 c-2.44 -0.8 -5.28 -0.4 -7.84 -0.4 c-0.04 3.8 0 7.56 0 11.32 z M38.36 21.56 c0.04 0 0.04 0.04 0.04 0.08 l0 -0.08 l-0.04 0 z M61.480000000000004 34.6 c-0.92 3.84 -4.44 5.68 -7.96 5.68 c-4 0 -7.96 -2.4 -8 -6.92 c0.92 -0.04 1.84 -0.04 2.8 0 c0.48 1.44 0.92 2.68 2.44 3.56 c0.88 0.48 1.92 0.72 2.96 0.72 c1.96 0 4 -0.84 4.92 -2.56 c1.56 -3.48 -0.6 -6.72 -4.2 -7.4 c-2.68 -0.68 -5.68 -1.08 -7.52 -3.36 c-0.88 -1 -1.36 -2.28 -1.48 -3.6 c-0.76 -5.32 3.36 -8.88 8.12 -8.88 c0.8 0 1.56 0.08 2.36 0.28 c2.96 0.56 5.88 3.64 5.68 6.64 c-0.96 0.08 -1.88 0.04 -2.84 0 c-0.56 -2.04 -1.8 -3.88 -4.24 -4.16 c-7.36 -1.24 -9.28 8.12 -2.04 9.8 c1.2 0.36 2.44 0.56 3.6 0.92 c4.2 0.88 6.48 5.24 5.4 9.28 z M49.96 23.52 l0 0 z M58.800000000000004 35.24 l0 -0.08 c0 0.04 -0.04 0.08 -0.04 0.08 l0.04 0 z M73.36 39.68 c-0.68 0.2 -1.56 0.12 -2.28 0.16 c-0.44 -7.32 0 -15 -0.08 -22.44 c-2.16 -0.16 -4.56 -1.04 -6.24 -2.48 c-0.08 -0.04 -0.12 -0.08 -0.2 -0.12 c-0.04 -0.04 -0.08 -0.08 -0.04 -0.12 l0 -0.04 c-0.04 -0.76 -0.08 -1.56 0 -2.32 l0 -0.04 c0 -0.16 0.04 -0.44 0.2 -0.2 l0.08 0.08 c0.04 0 0.08 0.04 0.16 0.08 l0.28 0.24 c0.44 0.32 0.92 0.64 1.44 0.88 c1.48 0.8 3.16 1.08 4.8 1.32 c0.2 0.04 0.36 0.04 0.56 0.04 l0.52 0 c0.32 0 0.6 0 0.88 -0.04 l0.4 0 c0.88 -0.08 1.72 -0.28 2.6 -0.44 l0.08 0 c0.04 -0.04 0.08 -0.04 0.12 -0.04 l0.08 0 c3.8 -1.04 7.84 -2.32 11.84 -2.32 c1.96 0 3.88 0.28 5.8 1.08 c1.52 0.52 2.88 1.16 4.2 2.08 c0.2 0.12 0.12 0.48 0.16 0.68 c0.04 0.52 0 1.08 -0.04 1.6 c0 0.08 0 0.12 -0.04 0.2 c0 0.68 -0.36 0.12 -0.68 -0.04 c-0.56 -0.32 -1.12 -0.68 -1.72 -0.96 c-0.04 -0.04 -0.12 -0.08 -0.2 -0.08 c-1.4 -0.72 -2.92 -1.12 -4.44 -1.48 c-0.04 0 -0.08 -0.04 -0.12 -0.04 c-0.2 -0.04 -0.36 -0.04 -0.52 -0.08 c-0.08 0 -0.16 -0.04 -0.2 -0.04 c-0.28 -0.04 -0.6 -0.08 -0.88 -0.12 l-0.12 0 c-0.8 -0.08 -1.6 -0.04 -2.4 0 c-2.04 0.12 -4 0.4 -5.92 1 c-1.6 0.4 -3.16 0.96 -4.8 1.28 c0 0 -0.04 0 -0.08 0.04 l0.04 0 l-0.16 0 c-1 0.2 -1.96 0.44 -2.96 0.48 c0 7.4 -0.04 14.84 -0.12 22.2 z M83.52000000000001 39.76 c-0.12 0.52 -1.88 0.12 -2.4 0.16 c-0.88 0.04 0.4 -1.88 0.48 -2.44 c2.16 -6.12 4.64 -12.16 6.76 -18.28 c0.76 -0.28 1.84 0 2.68 -0.08 c0.28 0.24 0.32 0.84 0.52 1.24 c2.4 6.48 4.96 12.92 7.24 19.44 c0 0.16 -0.24 0.08 -0.36 0.12 c-0.52 -0.04 -2.28 0.36 -2.4 -0.16 c-0.04 -0.12 -0.08 -0.28 -0.12 -0.4 c-0.72 -1.88 -1.28 -3.8 -2.08 -5.64 c-2.72 -0.04 -5.4 -0.04 -8.12 0 c-0.8 1.84 -1.4 3.76 -2.08 5.64 l-0.12 0.4 l0 0 z M89.76 23.16 c-1.16 2.8 -2.28 5.6 -3.36 8.48 c2.24 -0.04 4.48 -0.08 6.72 -0.08 c-1.08 -2.84 -2.2 -5.64 -3.36 -8.4 z M112.44 15.48 c-0.72 0.24 -1.24 -1.08 -1.8 -1.4 c-0.28 -0.76 1.04 -1.28 1.36 -1.96 c0.72 -0.24 1.24 1.08 1.84 1.44 c0.2 0.72 -1.08 1.28 -1.4 1.92 z M111.60000000000001 40.44 l-0.08 0 l-0.28 0 c-0.2 -0.04 -0.44 -0.04 -0.68 -0.08 c-1.04 -0.12 -2.08 -0.32 -3.04 -0.84 c-0.12 -0.04 -0.28 -0.12 -0.44 -0.2 l-0.2 -0.12 c-0.04 0 -0.08 0 -0.12 -0.08 l-0.04 0 c-0.24 -0.16 -0.44 -0.28 -0.64 -0.44 l-0.04 0 c-2.52 -1.84 -3.52 -4.96 -3.52 -7.96 l0 -1.68 l0 -0.12 l0 -0.2 l0 -0.16 l0 -0.16 l0 -0.16 c0 -0.08 -0.04 -0.2 -0.04 -0.28 c0 -2.16 0.04 -4.32 0.08 -6.48 l0 -0.04 l0 -0.08 l0 -0.16 l0 -0.56 l0 -0.16 l0 -0.2 l0 -0.32 l0 -0.24 l0 -0.16 l0 -0.12 c0 -0.08 0.04 -0.12 0.12 -0.16 l0.12 0 c0.4 -0.08 0.8 -0.08 1.24 -0.08 c0.4 0 0.84 0 1.24 0.04 c0.08 0 0.24 0.04 0.24 0.16 c0.04 0.08 0.04 0.12 0.04 0.2 l0 0.12 c0 0.68 -0.04 1.4 -0.04 2.08 l0 0.64 c-0.04 0.92 -0.04 1.84 -0.04 2.72 c-0.04 0.08 -0.04 0.12 -0.04 0.16 c0 0.12 0.04 0.2 0.04 0.32 c0 0.04 0 0.08 -0.04 0.12 l0 0.32 l0 2.52 l0 0.08 l0 0.52 l0 0.16 c0 0.72 -0.04 1.44 0.04 2.16 l0 0.04 c0.04 0.28 0.08 0.52 0.12 0.8 c0 0.08 0.04 0.16 0.04 0.28 c0.04 0.28 0.16 0.56 0.24 0.84 c0.08 0.24 0.2 0.48 0.28 0.72 c0.12 0.2 0.24 0.44 0.36 0.64 c0.36 0.64 0.96 1.24 1.56 1.64 c0.52 0.44 1.36 0.84 2.04 0.96 l0.04 0 c0.28 0.08 0.56 0.12 0.88 0.16 l0.08 0 c0.24 0 0.48 0 0.72 0.04 l0.24 0 l0.28 0 c0.24 -0.04 0.48 -0.04 0.72 -0.04 l0.08 0 c0.28 -0.04 0.6 -0.08 0.88 -0.16 c0.28 -0.04 0.52 -0.16 0.8 -0.24 c1.32 -0.52 2 -1.2 2.84 -2.36 c0.12 -0.2 0.24 -0.44 0.32 -0.64 c0.24 -0.52 0.44 -1 0.52 -1.56 l0.04 0 c0 -0.12 0 -0.2 0.04 -0.28 c0 -0.28 0.04 -0.52 0.08 -0.76 c0.08 -0.72 0.08 -1.44 0.08 -2.16 l0 -0.2 l0 -0.56 l0 -0.08 c-0.04 -0.84 -0.04 -1.72 -0.04 -2.56 l0 -0.28 l0 -0.12 l0 -0.32 l0 -0.12 l0 -0.92 l0 -0.16 c0 -0.52 -0.04 -1.08 -0.04 -1.64 c-0.04 -0.96 -0.04 -1.84 -0.04 -2.76 l0 -0.12 l0 -0.16 c0.04 -0.04 0.04 -0.12 0.12 -0.16 c0.04 -0.04 0.08 -0.04 0.16 -0.04 c0.4 -0.04 0.84 -0.04 1.24 -0.04 s0.84 0 1.24 0.08 c0.12 0.04 0.16 0.08 0.2 0.12 l0 0.16 l0 0.04 l0 0.2 l0 0.64 l0 0.04 c0.04 0.32 0.04 0.68 0.04 1 c0.04 1.8 0.08 3.64 0.08 5.44 c0 0.36 -0.04 0.72 -0.04 1.08 l0 0.4 l0 0.16 c0 0.28 -0.04 0.56 -0.04 0.84 l0 0.24 l0 0.56 l0 0.04 c0 3.28 -0.72 6.4 -3.52 8.44 c-0.2 0.16 -0.36 0.28 -0.56 0.36 c0 0.04 -0.04 0.04 -0.08 0.08 c0 0 -0.04 0.04 -0.12 0.04 c-0.04 0.04 -0.08 0.04 -0.08 0.08 c-0.24 0.08 -0.4 0.2 -0.64 0.32 c-1.2 0.56 -2.52 0.8 -3.8 0.88 l-0.32 0 l-0.72 0 l-0.2 0 z M164.92000000000002 32.6 c-0.72 0 -1.64 0.2 -2.32 -0.04 c0 -0.04 -0.04 -0.08 -0.04 -0.12 c-0.04 -0.16 -0.08 -0.28 -0.12 -0.4 c-0.68 -1.88 -1.24 -3.76 -2.04 -5.56 c-2.68 -0.04 -5.36 -0.04 -8.04 0 c-0.8 1.8 -1.36 3.68 -2.04 5.56 l0 -0.04 c-0.04 0.16 -0.08 0.28 -0.12 0.44 c0 0.04 -0.04 0.08 -0.04 0.16 c-0.68 0.2 -1.6 0 -2.32 0 l0 0 c-0.96 0.12 0.88 -3 0.88 -3.68 c2.12 -5.6 4.28 -11.28 6.36 -16.84 c0.84 -0.04 1.76 -0.04 2.6 0 c2.48 6.76 5.2 13.56 7.6 20.4 c0 0.16 -0.24 0.08 -0.36 0.12 z M159.4 40.08 c-2.04 0.04 -4.08 0.16 -6.12 0.12 c-2.44 -0.16 -4.88 -1.08 -6.6 -2.88 c-1.32 -1.32 -2.08 -3.08 -3.24 -4.52 c0 -0.04 -0.04 -0.04 -0.04 -0.08 c-1.72 -2.12 -3.84 -4.04 -6.6 -4.6 c-1.28 0.16 -2.6 0.24 -3.92 0.24 c-1.08 0 -2.2 -0.08 -3.32 -0.16 c0.04 3.52 -0.04 7.08 0 10.6 c-0.08 0.28 0.12 0.88 -0.16 1 l-1 0 c-0.32 0 -0.68 -0.04 -1 -0.08 c-0.12 -0.04 -0.52 0.04 -0.48 -0.2 c0.24 -8.8 0 -17.68 0.12 -26.52 c0.04 -0.32 -0.2 -1.04 0.36 -0.92 c2.36 -0.04 4.76 -0.04 7.12 0.04 c4.84 -0.24 8.84 3.24 8.84 8.16 c0 2.44 -1.04 4.96 -3.08 6.44 c-0.12 0.04 -0.24 0.08 -0.4 0.16 c2.4 1.28 4.4 3.24 5.92 5.44 c0.72 1.04 1.4 2.2 2.36 3.04 c1.64 1.6 4 2.28 6.24 2.36 c3.16 -0.04 6.36 -0.04 9.52 -0.52 c0.4 -0.08 0.84 -0.12 1.2 -0.24 c0.4 -0.2 0.28 0.48 0.32 0.72 c0 0.4 0 0.84 -0.04 1.28 c0 0.08 0 0.16 -0.08 0.2 c-1.84 0.68 -3.92 0.76 -5.92 0.92 z M129.56 25.759999999999998 c3.4 -0.08 7.88 0.88 10.2 -2.2 c1.96 -2.76 1 -7.44 -2.28 -8.68 c-2.48 -0.84 -5.32 -0.44 -7.92 -0.44 c-0.04 3.8 0 7.56 0 11.32 z M156.4 16.04 c-1.16 2.76 -2.28 5.56 -3.36 8.36 c2.2 -0.04 4.44 -0.04 6.64 -0.04 c-1.04 -2.8 -2.16 -5.56 -3.28 -8.32 z M162.44 32 l0 0 z M171.88000000000002 40.08 c-0.52 0.04 -1.08 0.04 -1.6 0.04 c0 0 -0.04 -0.04 -0.08 -0.04 c-0.12 -1.64 0.04 -3.36 0 -5 c-0.08 -2.28 -0.08 -4.6 -0.08 -6.88 l0 -2.52 c-0.08 -1.8 0.04 -3.6 0 -5.4 l0 0.04 c-0.04 -0.72 -0.04 -1.4 -0.04 -2.08 c0 -2 0.04 -4 0.16 -5.96 c0.76 -0.24 1.8 -0.16 2.64 -0.12 c1.08 1.48 1.96 3.16 3.04 4.68 c1.44 2.12 2.8 4.28 4.2 6.44 l1.52 2.36 c0.2 0.28 0.36 0.52 0.56 0.8 c0.92 1.4 1.76 2.88 2.72 4.28 c0.2 0.32 0.44 0.64 0.64 0.96 l0.6 0.96 c0.36 0.48 0.64 1 0.96 1.48 c0.08 -3.76 0.12 -7.52 0.12 -11.28 l0 -0.2 c-0.12 -2.84 -0.04 -5.72 -0.08 -8.56 c0.08 -0.68 -0.12 -1.44 0.04 -2.08 c0.28 -0.04 0.64 -0.04 0.92 -0.04 c0.52 0 1.08 -0.04 1.6 0 c0.04 0 0.04 0 0.08 0.04 c0.12 1.6 -0.04 3.32 0.04 5 c0.08 2.24 0.04 4.56 0.04 6.84 c0 0.84 0 1.68 0.04 2.52 c0.04 1.8 -0.04 3.6 0 5.4 c0 2.68 0 5.32 -0.12 8 c-0.76 0.28 -1.76 0.08 -2.56 0.16 c-0.08 0 -0.12 -0.04 -0.12 -0.12 c-3.16 -5.4 -6.4 -10.8 -9.84 -16.04 c-0.04 -0.04 -0.08 -0.12 -0.12 -0.16 c-1.48 -2.16 -2.88 -4.36 -4.28 -6.56 l-0.08 6.08 c-0.04 2.04 -0.04 4.08 0 6.08 l0 0.2 c0.08 2.88 0 5.72 0.04 8.6 c-0.16 1.08 0.68 2.32 -0.96 2.08 z M202.04 39.8 c-0.68 0.2 -1.56 0.12 -2.28 0.16 c-0.44 -7.36 0 -15.08 -0.08 -22.56 c-2.2 -0.2 -4.08 -1.08 -5.72 -2.48 l0 0.04 c-0.08 -0.08 -0.2 -0.16 -0.24 -0.28 l0 -0.04 c0 -0.76 -0.04 -1.56 0.04 -2.32 l0 -0.04 c0 -0.16 0 -0.44 0.2 -0.2 c0 0.04 0.04 0.04 0.04 0.08 c0.2 0.12 0.36 0.28 0.56 0.4 c0.36 0.28 0.76 0.56 1.16 0.8 c0.04 0.04 0.04 0.04 0.08 0.04 c1.48 0.8 3 1.12 4.64 1.32 c0.16 0 0.36 0 0.56 0.04 c0.68 0 1.24 -0.04 1.88 -0.12 c0.12 -0.04 0.2 -0.04 0.32 -0.08 c0.52 -0.08 1.04 -0.2 1.56 -0.32 l0.08 0 s0.08 0 0.12 -0.04 c3.56 -1.12 7.36 -2.32 11.04 -2.32 c2.32 0 4.64 0.48 6.8 1.76 c0 0 0.04 0 0.08 0.04 c0.84 0.4 1.64 0.88 2.4 1.4 c0.24 0.08 0.12 0.44 0.16 0.64 c0 0.2 0 0.4 0.04 0.6 c0 0.36 -0.04 0.68 -0.08 1 l0 0.24 c0 0.64 -0.4 0.12 -0.72 -0.04 c-0.56 -0.36 -1.12 -0.68 -1.72 -0.96 l0.04 0 c-1.84 -0.92 -4.16 -1.64 -6.2 -1.8 c-0.12 -0.04 -0.2 -0.04 -0.32 -0.04 c-0.36 -0.04 -0.52 -0.04 -0.68 -0.04 c-0.32 -0.04 -0.64 0 -0.92 0 c-1.24 0.12 -2.48 0.24 -3.68 0.52 c-2.12 0.48 -4.12 1.28 -6.24 1.8 l-0.08 0 s-0.04 0.04 -0.08 0.04 l-0.08 0 c-0.84 0.2 -1.68 0.4 -2.56 0.44 c0.04 7.44 -0.04 14.92 -0.12 22.32 z M223.56 39.96 c-4.72 0 -9.48 0.08 -14.2 0 c-0.08 0 -0.24 0 -0.24 -0.12 c-0.16 -1.88 -0.04 -3.72 -0.04 -5.6 c0.04 -4.96 -0.24 -9.92 -0.04 -14.88 l0 -0.04 c0.04 -0.04 0 -0.16 0.08 -0.16 c4.76 -0.24 9.76 -0.2 14.6 -0.2 c0.08 0 0.2 0 0.16 0.12 l0 0.04 c-0.04 0.72 0.24 1.8 -0.16 2.36 c-4 0.08 -8 0.04 -12 0.12 c0 2.28 -0.04 4.56 0.04 6.88 l0.76 0 c2.88 0.12 5.96 -0.16 8.76 0 c-0.24 0.68 0.4 2.56 -0.6 2.36 c-3 -0.04 -6 0 -9 0 c0.08 2.24 0.08 4.48 0.12 6.72 c4 -0.04 8.04 -0.12 12.04 -0.08 l0.08 0 c0.24 0.52 -0.04 1.32 0 1.88 c-0.04 0.32 0.04 0.68 -0.36 0.6 z M221.12 28.6 l0 0.08 l0 -0.08 z"></path>
    </g>
    <g id="SvgjsG6003" featurekey="nameFeature-1" transform="matrix(1.8321236510936103,0,0,1.8321236510936103,11.274862573353518,171.74736320116514)" fill="#ffffff">
        <path d="M20.64 36.28 c-3.52 4.04 -9.36 3.8 -14.28 3.64 c-2.8 -0.32 -3.4 1.04 -3.2 -2.44 c-0.04 -6.92 0.2 -13.84 0.08 -20.72 l0 -0.12 l0 -0.04 l0 -0.12 c-0.04 -0.04 -0.04 -0.08 -0.04 -0.12 l0 -0.04 l0 -0.16 c0.04 -1.32 -0.12 -2.76 0.08 -4.04 l0.08 0 c0.96 -0.04 1.96 -0.04 2.92 -0.04 c1.4 0.04 2.76 -0.04 4.16 0 c2.92 -0.04 5.88 0.52 8.32 2.16 c3.72 2.28 5.28 6.8 5.28 11 l0 0.12 c0.04 0.72 0.04 1.44 -0.04 2.16 l0 0.16 s-0.04 0.04 -0.04 0.08 l0 0.2 c-0.08 0.92 -0.24 1.8 -0.44 2.72 l0 -0.04 c-0.2 1 -0.52 1.96 -0.96 2.88 l-0.04 0 c-0.44 0.92 -1.04 1.76 -1.68 2.52 c-0.08 0.12 -0.16 0.2 -0.2 0.24 z M5.8 37.48 c1.68 0.12 3.36 0.24 5.04 0.2 c1.24 -0.08 2.36 -0.24 3.56 -0.44 c0.4 -0.12 0.8 -0.24 1.16 -0.44 l0 0.04 c0.68 -0.32 1.4 -0.72 1.96 -1.2 c1.24 -0.92 1.88 -1.8 2.6 -3.12 c0.32 -0.44 0.76 -1.92 0.88 -2.44 c0.12 -0.68 0.24 -1.4 0.32 -2.16 c0.08 -0.88 0.08 -1.8 0.04 -2.72 l0 -0.04 c-0.08 -3.16 -1.08 -6.44 -3.68 -8.4 c-1.36 -0.84 -3.12 -1.84 -4.72 -1.84 c-2.24 -0.2 -4.52 -0.24 -6.8 -0.24 c-0.12 0.04 -0.2 0.04 -0.32 0.04 c0 3.36 -0.08 6.72 -0.08 10.08 l0 2.52 c0.04 3.36 0.08 6.76 0.04 10.16 z M46.36 29.96 c-2.24 2.24 -4.68 3.36 -7.84 3.36 c-3.24 0 -6.04 -1.4 -8.2 -3.8 l-0.04 -0.04 c-1.64 -1.96 -2.6 -4.56 -2.6 -7.12 c0 -2.44 0.88 -4.68 2.36 -6.6 c0.12 -0.12 0.2 -0.28 0.32 -0.4 l0.12 -0.12 c0.08 -0.12 0.2 -0.2 0.32 -0.32 c2.28 -2.28 4.68 -3.32 8 -3.32 l0.04 0 c0.48 0 0.92 0.04 1.4 0.08 c4.68 0.64 8.64 4.72 9.12 9.44 c0.04 0.28 0.08 0.56 0.08 0.8 l0 0.04 c0 0.16 0.04 0.36 0.04 0.56 c0 2.64 -0.96 5.08 -2.72 7.04 c-0.12 0.16 -0.28 0.28 -0.4 0.4 z M37.28 30.28 c0.4 0.08 0.8 0.08 1.16 0.08 c4.04 0 7.28 -2.48 8 -6.44 c0 -0.2 0.04 -0.36 0.04 -0.56 c0.04 -0.24 0.04 -0.48 0.04 -0.76 l0 -0.4 c0.04 -4.56 -3.8 -7.76 -8.12 -7.76 c-4.4 0 -7.76 3.68 -7.76 8.04 c0 0.76 0.12 1.52 0.32 2.24 c0.64 2.96 3.36 5.16 6.32 5.56 z M38.72 39.92 c-0.72 0.24 -1.24 -1.08 -1.84 -1.4 c-0.2 -0.76 1.08 -1.28 1.4 -1.92 c0.72 -0.24 1.24 1.04 1.8 1.4 c0.28 0.72 -1.04 1.28 -1.36 1.92 z M81.32000000000001 33.12 c-0.76 0 -1.72 0.2 -2.36 0 c-0.04 -0.08 -0.04 -0.12 -0.08 -0.16 c-0.04 -0.16 -0.08 -0.28 -0.12 -0.44 c-0.72 -1.88 -1.28 -3.84 -2.12 -5.68 c-2.72 -0.04 -5.48 -0.04 -8.2 0 c-0.84 1.84 -1.4 3.8 -2.12 5.68 c-0.04 0.16 -0.08 0.28 -0.12 0.44 c-0.04 0.04 -0.04 0.08 -0.08 0.16 c-0.64 0.2 -1.6 0 -2.36 0 c-0.96 0.12 0.88 -3.08 0.92 -3.76 c2.16 -5.76 4.36 -11.6 6.52 -17.32 c0.84 -0.04 1.84 -0.04 2.68 0 c2.56 6.96 5.32 13.96 7.8 20.96 c0 0.16 -0.24 0.08 -0.36 0.12 z M72.52000000000001 16.12 c-1.16 2.84 -2.32 5.72 -3.4 8.6 c2.28 -0.04 4.52 -0.08 6.8 -0.08 c-1.08 -2.84 -2.2 -5.68 -3.4 -8.52 z M72.80000000000001 39.8 c-0.76 0.24 -1.28 -1.12 -1.88 -1.44 c-0.24 -0.76 1.04 -1.28 1.36 -1.92 c0.68 -0.48 1.32 1.08 1.92 1.36 c0.24 0.76 -1.08 1.32 -1.4 2 z M118.64 40 c-1.44 0.24 -2.92 0.28 -4.36 0.12 c-9.4 -0.44 -8.24 -8 -15.68 -11.04 c-1.2 -0.6 -2.24 -0.96 -3.44 -0.96 c-0.48 0 -0.92 0.08 -1.44 0.16 c-1.84 0.12 -3.64 0 -5.48 -0.08 c0.04 3.52 -0.04 7.08 0 10.6 c-0.08 0.28 0.12 0.88 -0.16 1 l-1 0 c-0.32 0 -0.68 -0.04 -1 -0.08 c-0.12 -0.04 -0.52 0.04 -0.48 -0.2 c0.24 -8.8 0 -17.68 0.12 -26.52 c0.04 -0.32 -0.2 -1.04 0.36 -0.92 c2.36 -0.04 4.76 -0.04 7.12 0.04 c4.84 -0.24 8.84 3.24 8.84 8.16 c0 2.44 -1.04 4.96 -3.08 6.44 c8.32 3.08 8.24 11 16.4 11 c1.4 0 3.08 -0.24 5.12 -0.8 c0.04 0.24 0.04 0.52 0.04 0.76 l0 1.28 c0.04 0.56 -1.4 0.92 -1.88 1.04 z M114.36 32.72 c-0.72 0.12 -1.52 0.08 -2.24 0.12 c-0.4 -3.96 -0.08 -8.32 -0.08 -12.4 l0 -5.88 c-2.2 -0.04 -4.4 -0.08 -6.6 -0.04 c-0.32 -0.28 -0.16 -1 -0.24 -1.44 c0 -0.2 0 -0.36 0.04 -0.56 c0.16 -0.76 1.56 -0.28 2.16 -0.44 c4.56 -0.04 9.2 0.04 13.72 0.12 c0.12 0.68 0.04 1.44 0.12 2.16 c0 0.04 0 0.04 -0.04 0.08 c-2.08 0.32 -4.56 0.08 -6.76 0.12 c0.04 2 0.04 4.04 0.04 6.04 l0 0.08 c-0.08 4 0 8.08 -0.12 12.04 z M88.24000000000001 25.759999999999998 c3.6 -0.04 8.64 0.96 10.64 -2.88 c1.32 -2.84 0.28 -6.88 -2.8 -8.04 c-2.44 -0.8 -5.28 -0.4 -7.84 -0.4 c-0.04 3.8 0 7.56 0 11.32 z M143.4 39.96 c-0.56 -0.08 -1.32 0.2 -1.76 -0.04 c0.12 -4.28 0.12 -8.56 0.16 -12.84 c-0.68 0.04 -1.36 0 -2.04 0 l-0.64 0 l-0.52 0 c-3.52 0.08 -7.04 0.08 -10.56 0.16 c0.04 4.2 0.04 8.4 0.16 12.6 c-0.72 0.28 -1.8 0 -2.64 0.08 c-0.04 0 -0.12 -0.04 -0.12 -0.08 c0 -2.4 0.04 -4.8 0.04 -7.2 l0 -0.08 c-0.04 -2.32 0 -4.68 0.04 -7 c0 -4.4 -0.04 -8.76 -0.16 -13.16 c-0.12 -0.68 1.28 -0.2 1.76 -0.32 c0.32 0.04 0.76 -0.16 1 0.08 c0 2.4 -0.04 4.8 -0.04 7.16 l0 0.12 c0.04 1.76 0 3.52 -0.04 5.28 c4.6 0.08 9.16 -0.12 13.76 0.04 c-0.04 -1.76 -0.08 -3.52 -0.04 -5.28 c-0.04 -0.04 0 -0.04 0 -0.08 c0 -2.2 0 -4.36 -0.04 -6.56 c0 -0.2 -0.04 -0.44 0 -0.64 c0 -0.04 0.08 -0.08 0.12 -0.08 c0.6 0.16 2.76 -0.44 2.64 0.36 c-0.12 4.36 -0.16 8.76 -0.16 13.16 c0.04 2.32 0.08 4.64 0.04 7 l0 0.08 c0 2.16 0 4.36 0.04 6.52 c0 0.2 0.04 0.44 -0.04 0.68 c-0.2 0.2 -0.64 0 -0.96 0.04 z M127.88 24.92 l0 0.2 l0 -0.2 z M127.84 27.240000000000002 l0 0.36 l0 -0.36 z M159.6 15.48 c-0.72 0.24 -1.24 -1.08 -1.8 -1.4 c-0.28 -0.76 1.04 -1.28 1.36 -1.96 c0.72 -0.24 1.24 1.08 1.84 1.44 c0.2 0.72 -1.08 1.28 -1.4 1.92 z M158.76 40.44 l-0.08 0 l-0.28 0 c-0.2 -0.04 -0.44 -0.04 -0.68 -0.08 c-1.04 -0.12 -2.08 -0.32 -3.04 -0.84 c-0.12 -0.04 -0.28 -0.12 -0.44 -0.2 l-0.2 -0.12 c-0.04 0 -0.08 0 -0.12 -0.08 l-0.04 0 c-0.24 -0.16 -0.44 -0.28 -0.64 -0.44 l-0.04 0 c-2.52 -1.84 -3.52 -4.96 -3.52 -7.96 l0 -1.68 l0 -0.12 l0 -0.2 l0 -0.16 l0 -0.16 l0 -0.16 c0 -0.08 -0.04 -0.2 -0.04 -0.28 c0 -2.16 0.04 -4.32 0.08 -6.48 l0 -0.04 l0 -0.08 l0 -0.16 l0 -0.56 l0 -0.16 l0 -0.2 l0 -0.32 l0 -0.24 l0 -0.16 l0 -0.12 c0 -0.08 0.04 -0.12 0.12 -0.16 l0.12 0 c0.4 -0.08 0.8 -0.08 1.24 -0.08 c0.4 0 0.84 0 1.24 0.04 c0.08 0 0.24 0.04 0.24 0.16 c0.04 0.08 0.04 0.12 0.04 0.2 l0 0.12 c0 0.68 -0.04 1.4 -0.04 2.08 l0 0.64 c-0.04 0.92 -0.04 1.84 -0.04 2.72 c-0.04 0.08 -0.04 0.12 -0.04 0.16 c0 0.12 0.04 0.2 0.04 0.32 c0 0.04 0 0.08 -0.04 0.12 l0 0.32 l0 2.52 l0 0.08 l0 0.52 l0 0.16 c0 0.72 -0.04 1.44 0.04 2.16 l0 0.04 c0.04 0.28 0.08 0.52 0.12 0.8 c0 0.08 0.04 0.16 0.04 0.28 c0.04 0.28 0.16 0.56 0.24 0.84 c0.08 0.24 0.2 0.48 0.28 0.72 c0.12 0.2 0.24 0.44 0.36 0.64 c0.36 0.64 0.96 1.24 1.56 1.64 c0.52 0.44 1.36 0.84 2.04 0.96 l0.04 0 c0.28 0.08 0.56 0.12 0.88 0.16 l0.08 0 c0.24 0 0.48 0 0.72 0.04 l0.24 0 l0.28 0 c0.24 -0.04 0.48 -0.04 0.72 -0.04 l0.08 0 c0.28 -0.04 0.6 -0.08 0.88 -0.16 c0.28 -0.04 0.52 -0.16 0.8 -0.24 c1.32 -0.52 2 -1.2 2.84 -2.36 c0.12 -0.2 0.24 -0.44 0.32 -0.64 c0.24 -0.52 0.44 -1 0.52 -1.56 l0.04 0 c0 -0.12 0 -0.2 0.04 -0.28 c0 -0.28 0.04 -0.52 0.08 -0.76 c0.08 -0.72 0.08 -1.44 0.08 -2.16 l0 -0.2 l0 -0.56 l0 -0.08 c-0.04 -0.84 -0.04 -1.72 -0.04 -2.56 l0 -0.28 l0 -0.12 l0 -0.32 l0 -0.12 l0 -0.92 l0 -0.16 c0 -0.52 -0.04 -1.08 -0.04 -1.64 c-0.04 -0.96 -0.04 -1.84 -0.04 -2.76 l0 -0.12 l0 -0.16 c0.04 -0.04 0.04 -0.12 0.12 -0.16 c0.04 -0.04 0.08 -0.04 0.16 -0.04 c0.4 -0.04 0.84 -0.04 1.24 -0.04 s0.84 0 1.24 0.08 c0.12 0.04 0.16 0.08 0.2 0.12 l0 0.16 l0 0.04 l0 0.2 l0 0.64 l0 0.04 c0.04 0.32 0.04 0.68 0.04 1 c0.04 1.8 0.08 3.64 0.08 5.44 c0 0.36 -0.04 0.72 -0.04 1.08 l0 0.4 l0 0.16 c0 0.28 -0.04 0.56 -0.04 0.84 l0 0.24 l0 0.56 l0 0.04 c0 3.28 -0.72 6.4 -3.52 8.44 c-0.2 0.16 -0.36 0.28 -0.56 0.36 c0 0.04 -0.04 0.04 -0.08 0.08 c0 0 -0.04 0.04 -0.12 0.04 c-0.04 0.04 -0.08 0.04 -0.08 0.08 c-0.24 0.08 -0.4 0.2 -0.64 0.32 c-1.2 0.56 -2.52 0.8 -3.8 0.88 l-0.32 0 l-0.72 0 l-0.2 0 z M193.08 40.56 c-1.52 0.04 -2.76 0.2 -3.6 -1.32 c-1.4 -1.76 -1.96 -4 -2.96 -6 c-0.96 -1.72 -2.2 -3.36 -3.96 -4.36 c-0.24 -0.16 -0.52 -0.32 -0.8 -0.44 c-1.68 -0.04 -3.36 0 -5.04 -0.16 c0.04 3.56 0 7.16 0 10.72 c-0.08 0.24 0.12 0.96 -0.16 1 c-0.68 0 -1.36 0 -2 -0.08 c-0.12 -0.08 -0.52 0.04 -0.48 -0.2 c0.24 -7.76 0 -15.56 0.12 -23.36 c0 -1.4 -0.08 -2.8 0 -4.2 c0.04 -0.08 0.12 -0.08 0.16 -0.08 c0.56 0 1.12 -0.04 1.64 0 c1.92 -0.04 3.84 -0.04 5.76 0.04 c1.32 0.04 2.68 0.12 3.92 0.64 c3 1.32 4.76 3.92 4.92 7.2 c0 0.04 0 0.04 0.04 0.08 l0 0.08 l0 0.16 c0 0.16 -0.04 0.36 -0.04 0.52 c-0.04 0.36 -0.04 0.72 -0.12 1.08 c-0.16 1.04 -0.52 2.04 -1.12 2.96 c-0.64 0.84 -1.2 1.56 -2.08 2.16 c-0.08 0.04 -0.16 0.12 -0.24 0.16 c-0.2 0.16 -0.32 0.2 -0.52 0.28 c-0.44 0.24 -0.88 0.4 -1.32 0.52 c1.6 1.08 3.2 2.88 4 4.68 l0 -0.04 c0.8 1.44 1.28 3 2.04 4.44 c0.24 0.4 0.48 0.8 0.76 1.2 c0.48 0.92 1.76 1.56 2.12 2.24 c-0.32 0.12 -0.72 0.08 -1.04 0.08 z M176.76000000000002 25.880000000000003 c2.84 -0.04 6.04 0.48 8.68 -0.84 c0.32 -0.16 0.6 -0.4 0.84 -0.6 c0.12 -0.08 0.2 -0.2 0.32 -0.28 c0.16 -0.16 0.28 -0.36 0.44 -0.52 c0.12 -0.2 0.28 -0.44 0.4 -0.72 c1.12 -2.44 0.6 -5.76 -1.6 -7.4 c-1.44 -0.96 -3.12 -1.16 -4.84 -1.16 c-1.44 0 -2.88 0.12 -4.24 0.12 l0 11.4 z M189 25.4 l0 0 z M194.16 40.48 l0 0 z"></path>
    </g>
</svg>